<svg xmlns="http://www.w3.org/2000/svg" viewBox="0 0 512 512" role="img" aria-label="TicTacube icon">
  <rect width="512" height="512" rx="96" fill="#101317" />
  <path d="M128 152h256v208H128z" fill="#d9ddcf" opacity=".12" />
  <path d="M176 112h256v208H176z" fill="#d9ddcf" opacity=".18" />
  <path d="M104 200h256v208H104z" fill="#d9ddcf" opacity=".24" />
  <path d="M170 218l52 52 52-52 30 30-52 52 52 52-30 30-52-52-52 52-30-30 52-52-52-52z" fill="#f15a5a" />
  <circle cx="332" cy="300" r="55" fill="none" stroke="#1aa7a1" stroke-width="34" />
  <path d="M128 152h256M128 256h256M128 360h256M128 152v208M256 152v208M384 152v208" stroke="#f4c542" stroke-width="10" opacity=".65" />
</svg>
